<svg width="23" height="21" viewBox="0 0 23 21" fill="none" xmlns="http://www.w3.org/2000/svg">
<path d="M13.16 7.39996L8.16 3.82996C7.46 3.32996 6.53 3.32996 5.84 3.82996L0.84 7.39996C0.31 7.77996 0 8.37996 0 9.02996V17C0 17.55 0.45 18 1 18H5V12H9V18H13C13.55 18 14 17.55 14 17V9.02996C14 8.37996 13.69 7.77996 13.16 7.39996Z" fill="#525A5B"/>
<path d="M20.03 0H10.97C9.88 0 9 0.88 9 1.97L9.09 2.06C9.17 2.11 9.25 2.15 9.33 2.2L14.33 5.77C15.09 6.31 15.63 7.11 15.87 8H18V10H16V12H18V14H16V17V18H20.03C21.12 18 22 17.12 22 16.03V1.97C22 0.88 21.12 0 20.03 0ZM18 6H16V4H18V6Z" fill="#525A5B"/>
<path d="M21.6457 16.8151L22.9936 18.1776C22.9943 18.1783 22.995 18.179 22.9958 18.1798C23.7741 18.9605 23.7734 20.222 22.9936 21.0018C22.213 21.7823 20.9499 21.7823 20.1694 21.0018L18.813 19.6454C17.9749 19.9806 17.0143 20.1075 15.9924 19.8936C13.9429 19.4683 12.322 17.7536 12.0452 15.6666L21.6457 16.8151ZM21.6457 16.8151C21.9819 15.9763 22.1095 15.0147 21.8956 13.9917C21.4716 11.9464 19.7594 10.3085 17.6633 10.0427C14.388 9.62018 11.6081 12.3797 12.0451 15.666L21.6457 16.8151ZM17.0065 15.9947C16.4587 15.9947 16.0065 15.5424 16.0065 14.9947C16.0065 14.4469 16.4587 13.9947 17.0065 13.9947C17.5542 13.9947 18.0065 14.4469 18.0065 14.9947C18.0065 15.5424 17.5542 15.9947 17.0065 15.9947Z" fill="#525A5B" stroke="#F8F8F8" stroke-width="2"/>
</svg>
